<svg xmlns="http://www.w3.org/2000/svg" version="1.1" xmlns:xlink="http://www.w3.org/1999/xlink" xmlns:svgjs="http://svgjs.com/svgjs" width="1440" height="560" preserveAspectRatio="none" viewBox="0 0 1440 560"><g mask="url(&quot;#SvgjsMask1070&quot;)" fill="none"><rect width="1440" height="560" x="0" y="0" fill="rgba(75, 44, 120, 1)"></rect><path d="M992.6842540517256 240.93279573334456L975.1101911211647 141.2653321384372 875.4427275262574 158.83939506899804 893.0167904568182 258.5068586639054z" fill="rgba(240, 217, 12, 1)" class="triangle-float2"></path><path d="M218.533,526.833C267.009,527.682,316.636,512.086,342.16,470.866C368.912,427.662,365.569,373.259,341.26,328.634C315.774,281.848,271.782,242.18,218.533,243.92C167.373,245.592,132.654,290.855,108.956,336.226C87.352,377.587,78.932,426.208,102.189,466.662C125.512,507.232,171.744,526.013,218.533,526.833" fill="rgba(240, 217, 12, 1)" class="triangle-float3"></path><path d="M1107.841,387.028C1139.301,386.531,1166.586,368.813,1183.817,342.486C1203.193,312.881,1217.161,276.321,1200.846,244.925C1183.555,211.651,1145.279,194.149,1107.841,196.278C1073.588,198.226,1047.812,224.364,1031.516,254.555C1016.161,283.003,1011.454,316.943,1027.592,344.953C1043.753,373.002,1075.473,387.539,1107.841,387.028" fill="rgba(240, 217, 12, 1)" class="triangle-float1"></path><path d="M-9.82 43.35 a183.07 183.07 0 1 0 366.14 0 a183.07 183.07 0 1 0 -366.14 0z" fill="rgba(240, 217, 12, 1)" class="triangle-float1"></path><path d="M1113.5734476284547 113.81928252673237L1257.6998784567818 157.8831544400813 1301.7637503701308 13.756723611754097 1157.6373195418037-30.30714830159485z" fill="rgba(240, 217, 12, 1)" class="triangle-float1"></path><path d="M1157.5 168.1 a102.33 102.33 0 1 0 204.66 0 a102.33 102.33 0 1 0 -204.66 0z" fill="rgba(240, 217, 12, 1)" class="triangle-float2"></path><path d="M364.9868906556873 522.023378810757L474.87666203392536 504.72588714864486 415.00744942400274 428.0967894425861z" fill="rgba(240, 217, 12, 1)" class="triangle-float3"></path><path d="M415.7459241723571 429.1680373604583L547.0716828554359 330.4030646968904 415.8488344923459 271.97888843775047z" fill="rgba(240, 217, 12, 1)" class="triangle-float1"></path><path d="M1424.5023857954454 241.80908663529107L1340.0682109606314 125.59541492275105 1223.8545392480914 210.02958975756496 1308.2887140829055 326.243261470105z" fill="rgba(240, 217, 12, 1)" class="triangle-float3"></path></g><defs><mask id="SvgjsMask1070"><rect width="1440" height="560" fill="#ffffff"></rect></mask><style>
            @keyframes float1 {
                0%{transform: translate(0, 0)}
                50%{transform: translate(-10px, 0)}
                100%{transform: translate(0, 0)}
            }

            .triangle-float1 {
                animation: float1 5s infinite;
            }

            @keyframes float2 {
                0%{transform: translate(0, 0)}
                50%{transform: translate(-5px, -5px)}
                100%{transform: translate(0, 0)}
            }

            .triangle-float2 {
                animation: float2 4s infinite;
            }

            @keyframes float3 {
                0%{transform: translate(0, 0)}
                50%{transform: translate(0, -10px)}
                100%{transform: translate(0, 0)}
            }

            .triangle-float3 {
                animation: float3 6s infinite;
            }
        </style></defs></svg>