<svg width="379" height="70" viewBox="0 0 379 70" fill="none" xmlns="http://www.w3.org/2000/svg">
<path d="M50.2656 61.6406V69H4.04688V61.6406H50.2656ZM48.7656 7.3125L6.20312 69H0.625V62.25L43.1406 0.75H48.7656V7.3125ZM44.9219 0.75V8.15625H1.23438V0.75H44.9219ZM105.391 61.6406V69H69.25V61.6406H105.391ZM71.0781 0.75V69H62.0312V0.75H71.0781ZM100.609 30.0938V37.4531H69.25V30.0938H100.609ZM104.922 0.75V8.15625H69.25V0.75H104.922Z" fill="#4B2C78"/>
<path d="M123.953 29.1094V69H115.281V18.2812H123.484L123.953 29.1094ZM121.891 41.7188L118.281 41.5781C118.312 38.1094 118.828 34.9062 119.828 31.9688C120.828 29 122.234 26.4219 124.047 24.2344C125.859 22.0469 128.016 20.3594 130.516 19.1719C133.047 17.9531 135.844 17.3438 138.906 17.3438C141.406 17.3438 143.656 17.6875 145.656 18.375C147.656 19.0312 149.359 20.0938 150.766 21.5625C152.203 23.0312 153.297 24.9375 154.047 27.2812C154.797 29.5938 155.172 32.4219 155.172 35.7656V69H146.453V35.6719C146.453 33.0156 146.062 30.8906 145.281 29.2969C144.5 27.6719 143.359 26.5 141.859 25.7812C140.359 25.0312 138.516 24.6562 136.328 24.6562C134.172 24.6562 132.203 25.1094 130.422 26.0156C128.672 26.9219 127.156 28.1719 125.875 29.7656C124.625 31.3594 123.641 33.1875 122.922 35.25C122.234 37.2812 121.891 39.4375 121.891 41.7188ZM188.641 62.8125C190.703 62.8125 192.609 62.3906 194.359 61.5469C196.109 60.7031 197.547 59.5469 198.672 58.0781C199.797 56.5781 200.438 54.875 200.594 52.9688H208.844C208.688 55.9688 207.672 58.7656 205.797 61.3594C203.953 63.9219 201.531 66 198.531 67.5938C195.531 69.1562 192.234 69.9375 188.641 69.9375C184.828 69.9375 181.5 69.2656 178.656 67.9219C175.844 66.5781 173.5 64.7344 171.625 62.3906C169.781 60.0469 168.391 57.3594 167.453 54.3281C166.547 51.2656 166.094 48.0312 166.094 44.625V42.6562C166.094 39.25 166.547 36.0312 167.453 33C168.391 29.9375 169.781 27.2344 171.625 24.8906C173.5 22.5469 175.844 20.7031 178.656 19.3594C181.5 18.0156 184.828 17.3438 188.641 17.3438C192.609 17.3438 196.078 18.1562 199.047 19.7812C202.016 21.375 204.344 23.5625 206.031 26.3438C207.75 29.0938 208.688 32.2188 208.844 35.7188H200.594C200.438 33.625 199.844 31.7344 198.812 30.0469C197.812 28.3594 196.438 27.0156 194.688 26.0156C192.969 24.9844 190.953 24.4688 188.641 24.4688C185.984 24.4688 183.75 25 181.938 26.0625C180.156 27.0938 178.734 28.5 177.672 30.2812C176.641 32.0312 175.891 33.9844 175.422 36.1406C174.984 38.2656 174.766 40.4375 174.766 42.6562V44.625C174.766 46.8438 174.984 49.0312 175.422 51.1875C175.859 53.3438 176.594 55.2969 177.625 57.0469C178.688 58.7969 180.109 60.2031 181.891 61.2656C183.703 62.2969 185.953 62.8125 188.641 62.8125ZM249.625 57.2812V18.2812H258.344V69H250.047L249.625 57.2812ZM251.266 46.5938L254.875 46.5C254.875 49.875 254.516 53 253.797 55.875C253.109 58.7188 251.984 61.1875 250.422 63.2812C248.859 65.375 246.812 67.0156 244.281 68.2031C241.75 69.3594 238.672 69.9375 235.047 69.9375C232.578 69.9375 230.312 69.5781 228.25 68.8594C226.219 68.1406 224.469 67.0312 223 65.5312C221.531 64.0312 220.391 62.0781 219.578 59.6719C218.797 57.2656 218.406 54.375 218.406 51V18.2812H227.078V51.0938C227.078 53.375 227.328 55.2656 227.828 56.7656C228.359 58.2344 229.062 59.4062 229.938 60.2812C230.844 61.125 231.844 61.7188 232.938 62.0625C234.062 62.4062 235.219 62.5781 236.406 62.5781C240.094 62.5781 243.016 61.875 245.172 60.4688C247.328 59.0312 248.875 57.1094 249.812 54.7031C250.781 52.2656 251.266 49.5625 251.266 46.5938ZM280.234 26.25V69H271.562V18.2812H280L280.234 26.25ZM296.078 18L296.031 26.0625C295.312 25.9062 294.625 25.8125 293.969 25.7812C293.344 25.7188 292.625 25.6875 291.812 25.6875C289.812 25.6875 288.047 26 286.516 26.625C284.984 27.25 283.688 28.125 282.625 29.25C281.562 30.375 280.719 31.7188 280.094 33.2812C279.5 34.8125 279.109 36.5 278.922 38.3438L276.484 39.75C276.484 36.6875 276.781 33.8125 277.375 31.125C278 28.4375 278.953 26.0625 280.234 24C281.516 21.9062 283.141 20.2812 285.109 19.125C287.109 17.9375 289.484 17.3438 292.234 17.3438C292.859 17.3438 293.578 17.4219 294.391 17.5781C295.203 17.7031 295.766 17.8438 296.078 18ZM327.672 18.2812V24.9375H300.25V18.2812H327.672ZM309.531 5.95312H318.203V56.4375C318.203 58.1562 318.469 59.4531 319 60.3281C319.531 61.2031 320.219 61.7812 321.062 62.0625C321.906 62.3438 322.812 62.4844 323.781 62.4844C324.5 62.4844 325.25 62.4219 326.031 62.2969C326.844 62.1406 327.453 62.0156 327.859 61.9219L327.906 69C327.219 69.2188 326.312 69.4219 325.188 69.6094C324.094 69.8281 322.766 69.9375 321.203 69.9375C319.078 69.9375 317.125 69.5156 315.344 68.6719C313.562 67.8281 312.141 66.4219 311.078 64.4531C310.047 62.4531 309.531 59.7656 309.531 56.3906V5.95312ZM367.75 60.3281V34.2188C367.75 32.2188 367.344 30.4844 366.531 29.0156C365.75 27.5156 364.562 26.3594 362.969 25.5469C361.375 24.7344 359.406 24.3281 357.062 24.3281C354.875 24.3281 352.953 24.7031 351.297 25.4531C349.672 26.2031 348.391 27.1875 347.453 28.4062C346.547 29.625 346.094 30.9375 346.094 32.3438H337.422C337.422 30.5312 337.891 28.7344 338.828 26.9531C339.766 25.1719 341.109 23.5625 342.859 22.125C344.641 20.6562 346.766 19.5 349.234 18.6562C351.734 17.7812 354.516 17.3438 357.578 17.3438C361.266 17.3438 364.516 17.9688 367.328 19.2188C370.172 20.4688 372.391 22.3594 373.984 24.8906C375.609 27.3906 376.422 30.5312 376.422 34.3125V57.9375C376.422 59.625 376.562 61.4219 376.844 63.3281C377.156 65.2344 377.609 66.875 378.203 68.25V69H369.156C368.719 68 368.375 66.6719 368.125 65.0156C367.875 63.3281 367.75 61.7656 367.75 60.3281ZM369.25 38.25L369.344 44.3438H360.578C358.109 44.3438 355.906 44.5469 353.969 44.9531C352.031 45.3281 350.406 45.9062 349.094 46.6875C347.781 47.4688 346.781 48.4531 346.094 49.6406C345.406 50.7969 345.062 52.1562 345.062 53.7188C345.062 55.3125 345.422 56.7656 346.141 58.0781C346.859 59.3906 347.938 60.4375 349.375 61.2188C350.844 61.9688 352.641 62.3438 354.766 62.3438C357.422 62.3438 359.766 61.7812 361.797 60.6562C363.828 59.5312 365.438 58.1562 366.625 56.5312C367.844 54.9062 368.5 53.3281 368.594 51.7969L372.297 55.9688C372.078 57.2812 371.484 58.7344 370.516 60.3281C369.547 61.9219 368.25 63.4531 366.625 64.9219C365.031 66.3594 363.125 67.5625 360.906 68.5312C358.719 69.4688 356.25 69.9375 353.5 69.9375C350.062 69.9375 347.047 69.2656 344.453 67.9219C341.891 66.5781 339.891 64.7812 338.453 62.5312C337.047 60.25 336.344 57.7031 336.344 54.8906C336.344 52.1719 336.875 49.7812 337.938 47.7188C339 45.625 340.531 43.8906 342.531 42.5156C344.531 41.1094 346.938 40.0469 349.75 39.3281C352.562 38.6094 355.703 38.25 359.172 38.25H369.25Z" fill="#F0D90C"/>
</svg>
